<svg width="80" height="80" viewBox="0 0 80 80" fill="none" xmlns="http://www.w3.org/2000/svg">
  <!-- Background with gradient -->
  <defs>
    <linearGradient id="bgGradient" x1="0%" y1="0%" x2="100%" y2="100%">
      <stop offset="0%" style="stop-color:#1e40af;stop-opacity:1" />
      <stop offset="100%" style="stop-color:#3b82f6;stop-opacity:1" />
    </linearGradient>
    <linearGradient id="buildingGradient" x1="0%" y1="0%" x2="0%" y2="100%">
      <stop offset="0%" style="stop-color:#ffffff;stop-opacity:1" />
      <stop offset="100%" style="stop-color:#e0e7ff;stop-opacity:1" />
    </linearGradient>
    <filter id="shadow" x="-50%" y="-50%" width="200%" height="200%">
      <feGaussianBlur in="SourceAlpha" stdDeviation="3"/>
      <feOffset dx="0" dy="2" result="offsetblur"/>
      <feComponentTransfer>
        <feFuncA type="linear" slope="0.5"/>
      </feComponentTransfer>
      <feMerge>
        <feMergeNode/>
        <feMergeNode in="SourceGraphic"/>
      </feMerge>
    </filter>
  </defs>
  
  <!-- Rounded rectangle background -->
  <rect x="4" y="4" width="72" height="72" rx="16" fill="url(#bgGradient)" filter="url(#shadow)"/>
  
  <!-- Building icon (3D effect) -->
  <g transform="translate(25, 20)">
    <!-- Main building -->
    <rect x="4" y="8" width="22" height="32" fill="url(#buildingGradient)" rx="2"/>
    <rect x="4" y="8" width="22" height="32" fill="rgba(255,255,255,0.1)" rx="2"/>
    
    <!-- Windows (3x4 grid) -->
    <rect x="7" y="12" width="4" height="4" fill="#1e40af" opacity="0.6" rx="1"/>
    <rect x="13" y="12" width="4" height="4" fill="#1e40af" opacity="0.6" rx="1"/>
    <rect x="19" y="12" width="4" height="4" fill="#1e40af" opacity="0.6" rx="1"/>
    
    <rect x="7" y="18" width="4" height="4" fill="#1e40af" opacity="0.6" rx="1"/>
    <rect x="13" y="18" width="4" height="4" fill="#1e40af" opacity="0.6" rx="1"/>
    <rect x="19" y="18" width="4" height="4" fill="#1e40af" opacity="0.6" rx="1"/>
    
    <rect x="7" y="24" width="4" height="4" fill="#1e40af" opacity="0.6" rx="1"/>
    <rect x="13" y="24" width="4" height="4" fill="#1e40af" opacity="0.6" rx="1"/>
    <rect x="19" y="24" width="4" height="4" fill="#1e40af" opacity="0.6" rx="1"/>
    
    <rect x="7" y="30" width="4" height="4" fill="#1e40af" opacity="0.6" rx="1"/>
    <rect x="13" y="30" width="4" height="4" fill="#1e40af" opacity="0.6" rx="1"/>
    <rect x="19" y="30" width="4" height="4" fill="#1e40af" opacity="0.6" rx="1"/>
    
    <!-- Door -->
    <rect x="11" y="34" width="8" height="6" fill="#1e40af" opacity="0.8" rx="1"/>
    
    <!-- 3D depth effect (right side) -->
    <path d="M 26 8 L 30 10 L 30 42 L 26 40 Z" fill="rgba(0,0,0,0.2)"/>
    
    <!-- 3D depth effect (top) -->
    <path d="M 4 8 L 8 6 L 30 6 L 26 8 Z" fill="rgba(255,255,255,0.3)"/>
    
    <!-- Highlight -->
    <rect x="5" y="9" width="2" height="28" fill="rgba(255,255,255,0.4)" rx="1"/>
  </g>
</svg>
